<?xml version="1.0" encoding="UTF-8" standalone="no"?>
<!DOCTYPE svg PUBLIC "-//W3C//DTD SVG 1.0//EN" "http://www.w3.org/TR/2001/PR-SVG-20010719/DTD/svg10.dtd">
<svg width="35cm" height="15cm" viewBox="99 19 682 282" xmlns="http://www.w3.org/2000/svg" xmlns:xlink="http://www.w3.org/1999/xlink">
  <g>
    <rect style="fill: #ffffff" x="100" y="40" width="680" height="260"/>
    <rect style="fill: none; fill-opacity:0; stroke-width: 2; stroke: #000000" x="100" y="40" width="680" height="260"/>
    <rect style="fill: #ffffff" x="100" y="20" width="119.5" height="20"/>
    <rect style="fill: none; fill-opacity:0; stroke-width: 2; stroke: #000000" x="100" y="20" width="119.5" height="20"/>
    <text font-size="12.7998" style="fill: #000000;text-anchor:start;font-family:monospace;font-style:normal;font-weight:normal" x="102" y="34">Enviar mensajes</text>
  </g>
  <g>
    <rect style="fill: #ffd294" x="117.2" y="60.9" width="112.75" height="36"/>
    <rect style="fill: none; fill-opacity:0; stroke-width: 2; stroke: #000000" x="117.2" y="60.9" width="112.75" height="36"/>
    <text font-size="12.7998" style="fill: #000000;text-anchor:middle;font-family:sans-serif;font-style:normal;font-weight:normal" x="173.575" y="82.8">
      <tspan x="173.575" y="82.8">SerialDongle.c</tspan>
    </text>
    <line style="fill: none; fill-opacity:0; stroke-width: 1; stroke: #000000" x1="127.2" y1="85.85" x2="219.95" y2="85.85"/>
  </g>
  <g>
    <rect style="fill: #ffd294" x="297.2" y="60.9" width="121.544" height="36"/>
    <rect style="fill: none; fill-opacity:0; stroke-width: 2; stroke: #000000" x="297.2" y="60.9" width="121.544" height="36"/>
    <text font-size="12.7998" style="fill: #000000;text-anchor:middle;font-family:sans-serif;font-style:normal;font-weight:normal" x="357.972" y="82.8">
      <tspan x="357.972" y="82.8">ProtocolParser.c</tspan>
    </text>
    <line style="fill: none; fill-opacity:0; stroke-width: 1; stroke: #000000" x1="307.2" y1="85.85" x2="408.744" y2="85.85"/>
  </g>
  <g>
    <rect style="fill: #ffd294" x="677.2" y="60.9" width="73.95" height="36"/>
    <rect style="fill: none; fill-opacity:0; stroke-width: 2; stroke: #000000" x="677.2" y="60.9" width="73.95" height="36"/>
    <text font-size="12.7998" style="fill: #000000;text-anchor:middle;font-family:sans-serif;font-style:normal;font-weight:normal" x="714.175" y="82.8">
      <tspan x="714.175" y="82.8">BitCloud</tspan>
    </text>
    <line style="fill: none; fill-opacity:0; stroke-width: 1; stroke: #000000" x1="687.2" y1="85.85" x2="741.15" y2="85.85"/>
  </g>
  <g>
    <line style="fill: none; fill-opacity:0; stroke-width: 1; stroke-dasharray: 8; stroke: #000000" x1="173.575" y1="96.9" x2="173.575" y2="130.9"/>
    <line style="fill: none; fill-opacity:0; stroke-width: 1; stroke-dasharray: 8; stroke: #000000" x1="173.575" y1="250.9" x2="173.575" y2="280"/>
    <rect style="fill: #ffd294" x="166.575" y="130.9" width="14" height="120"/>
    <rect style="fill: none; fill-opacity:0; stroke-width: 2; stroke: #000000" x="166.575" y="130.9" width="14" height="120"/>
  </g>
  <g>
    <line style="fill: none; fill-opacity:0; stroke-width: 1; stroke-dasharray: 8; stroke: #000000" x1="357.972" y1="96.9" x2="357.972" y2="130.9"/>
    <line style="fill: none; fill-opacity:0; stroke-width: 1; stroke-dasharray: 8; stroke: #000000" x1="357.972" y1="210.9" x2="357.972" y2="280"/>
    <rect style="fill: #ffd294" x="350.972" y="130.9" width="14" height="80"/>
    <rect style="fill: none; fill-opacity:0; stroke-width: 2; stroke: #000000" x="350.972" y="130.9" width="14" height="80"/>
  </g>
  <g>
    <line style="fill: none; fill-opacity:0; stroke-width: 1; stroke-dasharray: 8; stroke: #000000" x1="714.175" y1="96.9" x2="714.175" y2="150"/>
    <line style="fill: none; fill-opacity:0; stroke-width: 1; stroke-dasharray: 8; stroke: #000000" x1="714.175" y1="190" x2="714.175" y2="260"/>
    <rect style="fill: #ffd294" x="707.175" y="150" width="14" height="40"/>
    <rect style="fill: none; fill-opacity:0; stroke-width: 2; stroke: #000000" x="707.175" y="150" width="14" height="40"/>
  </g>
  <g>
    <line style="fill: none; fill-opacity:0; stroke-width: 2; stroke: #000000" x1="333.972" y1="130.9" x2="180.575" y2="130.9"/>
    <polygon style="fill: #000000" points="333.972,135.9 349.972,130.9 333.972,125.9 "/>
    <polygon style="fill: none; fill-opacity:0; stroke-width: 2; stroke: #000000" points="333.972,135.9 349.972,130.9 333.972,125.9 "/>
    <text font-size="12.7998" style="fill: #000000;text-anchor:middle;font-family:sans-serif;font-style:normal;font-weight:normal" x="265.773" y="140.9">send_first_output()</text>
  </g>
  <g>
    <rect style="fill: #ffd294" x="480" y="60" width="126.994" height="36"/>
    <rect style="fill: none; fill-opacity:0; stroke-width: 2; stroke: #000000" x="480" y="60" width="126.994" height="36"/>
    <text font-size="12.7998" style="fill: #000000;text-anchor:middle;font-family:sans-serif;font-style:normal;font-weight:normal" x="543.497" y="81.9">
      <tspan x="543.497" y="81.9">UsartController.c</tspan>
    </text>
    <line style="fill: none; fill-opacity:0; stroke-width: 1; stroke: #000000" x1="490" y1="84.95" x2="596.994" y2="84.95"/>
  </g>
  <g>
    <line style="fill: none; fill-opacity:0; stroke-width: 1; stroke-dasharray: 8; stroke: #000000" x1="543.497" y1="96" x2="543.497" y2="150"/>
    <line style="fill: none; fill-opacity:0; stroke-width: 1; stroke-dasharray: 8; stroke: #000000" x1="543.497" y1="190" x2="543.497" y2="280"/>
    <rect style="fill: #ffd294" x="536.497" y="150" width="14" height="40"/>
    <rect style="fill: none; fill-opacity:0; stroke-width: 2; stroke: #000000" x="536.497" y="150" width="14" height="40"/>
  </g>
  <g>
    <line style="fill: none; fill-opacity:0; stroke-width: 2; stroke: #000000" x1="519.497" y1="150" x2="366" y2="150"/>
    <polygon style="fill: #000000" points="519.497,155 535.497,150 519.497,145 "/>
    <polygon style="fill: none; fill-opacity:0; stroke-width: 2; stroke: #000000" points="519.497,155 535.497,150 519.497,145 "/>
  </g>
  <g>
    <line style="fill: none; fill-opacity:0; stroke-width: 2; stroke: #000000" x1="690.175" y1="160" x2="550.497" y2="160"/>
    <polygon style="fill: #000000" points="690.175,165 706.175,160 690.175,155 "/>
    <polygon style="fill: none; fill-opacity:0; stroke-width: 2; stroke: #000000" points="690.175,165 706.175,160 690.175,155 "/>
    <text font-size="12.7998" style="fill: #000000;text-anchor:middle;font-family:sans-serif;font-style:normal;font-weight:normal" x="628.836" y="170">HAL_WriteUsart()</text>
  </g>
  <g>
    <line style="fill: none; fill-opacity:0; stroke-width: 2; stroke-dasharray: 8; stroke: #000000" x1="567.497" y1="180" x2="707.175" y2="180"/>
    <polygon style="fill: #000000" points="567.497,175 551.497,180 567.497,185 "/>
    <polygon style="fill: none; fill-opacity:0; stroke-width: 2; stroke: #000000" points="567.497,175 551.497,180 567.497,185 "/>
  </g>
  <g>
    <polyline style="fill: none; fill-opacity:0; stroke-width: 2; stroke: #000000" points="182,210 228,210 227.88,244.087 189.736,244.018 "/>
    <polygon style="fill: #000000" points="182.236,244.004 192.245,239.022 189.736,244.018 192.227,249.022 "/>
    <polygon style="fill: none; fill-opacity:0; stroke-width: 2; stroke: #000000" points="182.236,244.004 192.245,239.022 189.736,244.018 192.227,249.022 "/>
  </g>
  <text font-size="12.7998" style="fill: #000000;text-anchor:start;font-family:sans-serif;font-style:normal;font-weight:normal" x="192" y="204">
    <tspan x="192" y="204">changeGlobalTask()</tspan>
  </text>
</svg>
