<?xml version="1.0" encoding="UTF-8" standalone="no"?>
<!DOCTYPE svg PUBLIC "-//W3C//DTD SVG 1.0//EN" "http://www.w3.org/TR/2001/PR-SVG-20010719/DTD/svg10.dtd">
<svg width="39cm" height="23cm" viewBox="-1 -2 762 442" xmlns="http://www.w3.org/2000/svg" xmlns:xlink="http://www.w3.org/1999/xlink">
  <g>
    <rect style="fill: #ffffff" x="0" y="20" width="760" height="400"/>
    <rect style="fill: none; fill-opacity:0; stroke-width: 2; stroke: #000000" x="0" y="20" width="760" height="400"/>
    <rect style="fill: #ffffff" x="0" y="0" width="111.8" height="20"/>
    <rect style="fill: none; fill-opacity:0; stroke-width: 2; stroke: #000000" x="0" y="0" width="111.8" height="20"/>
    <text font-size="12.7998" style="fill: #000000;text-anchor:start;font-family:monospace;font-style:normal;font-weight:normal" x="2" y="14">Inicialización</text>
  </g>
  <g>
    <rect style="fill: #ffd294" x="28.1371" y="60" width="112.75" height="36"/>
    <rect style="fill: none; fill-opacity:0; stroke-width: 2; stroke: #000000" x="28.1371" y="60" width="112.75" height="36"/>
    <text font-size="12.7998" style="fill: #000000;text-anchor:middle;font-family:sans-serif;font-style:normal;font-weight:normal" x="84.5121" y="81.9">
      <tspan x="84.5121" y="81.9">SerialDongle.c</tspan>
    </text>
    <line style="fill: none; fill-opacity:0; stroke-width: 1; stroke: #000000" x1="38.1371" y1="84.95" x2="130.887" y2="84.95"/>
  </g>
  <g>
    <line style="fill: none; fill-opacity:0; stroke-width: 1; stroke-dasharray: 8; stroke: #000000" x1="88.1371" y1="100" x2="88.1371" y2="140"/>
    <line style="fill: none; fill-opacity:0; stroke-width: 1; stroke-dasharray: 8; stroke: #000000" x1="88.1371" y1="380" x2="88.1371" y2="440"/>
    <rect style="fill: #ffd294" x="81.1371" y="140" width="14" height="240"/>
    <rect style="fill: none; fill-opacity:0; stroke-width: 2; stroke: #000000" x="81.1371" y="140" width="14" height="240"/>
  </g>
  <g>
    <rect style="fill: #ffd294" x="343.846" y="60" width="126.994" height="36"/>
    <rect style="fill: none; fill-opacity:0; stroke-width: 2; stroke: #000000" x="343.846" y="60" width="126.994" height="36"/>
    <text font-size="12.7998" style="fill: #000000;text-anchor:middle;font-family:sans-serif;font-style:normal;font-weight:normal" x="407.343" y="81.9">
      <tspan x="407.343" y="81.9">UsartController.c</tspan>
    </text>
    <line style="fill: none; fill-opacity:0; stroke-width: 1; stroke: #000000" x1="353.846" y1="84.95" x2="460.84" y2="84.95"/>
  </g>
  <g>
    <line style="fill: none; fill-opacity:0; stroke-width: 1; stroke-dasharray: 8; stroke: #000000" x1="403.846" y1="100" x2="403.846" y2="140"/>
    <line style="fill: none; fill-opacity:0; stroke-width: 1; stroke-dasharray: 8; stroke: #000000" x1="403.846" y1="160" x2="403.846" y2="360"/>
    <rect style="fill: #ffd294" x="396.846" y="140" width="14" height="20"/>
    <rect style="fill: none; fill-opacity:0; stroke-width: 2; stroke: #000000" x="396.846" y="140" width="14" height="20"/>
  </g>
  <g>
    <rect style="fill: #ffd294" x="657.533" y="60" width="73.95" height="36"/>
    <rect style="fill: none; fill-opacity:0; stroke-width: 2; stroke: #000000" x="657.533" y="60" width="73.95" height="36"/>
    <text font-size="12.7998" style="fill: #000000;text-anchor:middle;font-family:sans-serif;font-style:normal;font-weight:normal" x="694.508" y="81.9">
      <tspan x="694.508" y="81.9">BitCloud</tspan>
    </text>
    <line style="fill: none; fill-opacity:0; stroke-width: 1; stroke: #000000" x1="667.533" y1="84.95" x2="721.483" y2="84.95"/>
  </g>
  <g>
    <line style="fill: none; fill-opacity:0; stroke-width: 1; stroke-dasharray: 8; stroke: #000000" x1="700" y1="100" x2="700" y2="150"/>
    <line style="fill: none; fill-opacity:0; stroke-width: 1; stroke-dasharray: 8; stroke: #000000" x1="700" y1="330" x2="700" y2="360"/>
    <rect style="fill: #ffd294" x="693" y="150" width="14" height="180"/>
    <rect style="fill: none; fill-opacity:0; stroke-width: 2; stroke: #000000" x="693" y="150" width="14" height="180"/>
  </g>
  <g>
    <line style="fill: none; fill-opacity:0; stroke-width: 2; stroke: #000000" x1="379.846" y1="140" x2="96" y2="140"/>
    <polygon style="fill: #000000" points="379.846,145 395.846,140 379.846,135 "/>
    <polygon style="fill: none; fill-opacity:0; stroke-width: 2; stroke: #000000" points="379.846,145 395.846,140 379.846,135 "/>
    <text font-size="12.7998" style="fill: #000000;text-anchor:middle;font-family:sans-serif;font-style:normal;font-weight:normal" x="246.423" y="150">init_usart()</text>
  </g>
  <g>
    <line style="fill: none; fill-opacity:0; stroke-width: 2; stroke: #000000" x1="675" y1="152" x2="412" y2="152"/>
    <polygon style="fill: #000000" points="675,157 691,152 675,147 "/>
    <polygon style="fill: none; fill-opacity:0; stroke-width: 2; stroke: #000000" points="675,157 691,152 675,147 "/>
    <text font-size="12.7998" style="fill: #000000;text-anchor:middle;font-family:sans-serif;font-style:normal;font-weight:normal" x="552" y="162"/>
  </g>
  <g>
    <rect style="fill: #ffd294" x="512.904" y="60" width="91.4937" height="36"/>
    <rect style="fill: none; fill-opacity:0; stroke-width: 2; stroke: #000000" x="512.904" y="60" width="91.4937" height="36"/>
    <text font-size="12.7998" style="fill: #000000;text-anchor:middle;font-family:sans-serif;font-style:normal;font-weight:normal" x="558.651" y="81.9">
      <tspan x="558.651" y="81.9">Visualizer.c</tspan>
    </text>
    <line style="fill: none; fill-opacity:0; stroke-width: 1; stroke: #000000" x1="522.904" y1="84.95" x2="594.398" y2="84.95"/>
  </g>
  <g>
    <line style="fill: none; fill-opacity:0; stroke-width: 1; stroke-dasharray: 8; stroke: #000000" x1="560.904" y1="96" x2="560.904" y2="188"/>
    <line style="fill: none; fill-opacity:0; stroke-width: 1; stroke-dasharray: 8; stroke: #000000" x1="560.904" y1="208" x2="560.904" y2="360"/>
    <rect style="fill: #ffd294" x="553.904" y="188" width="14" height="20"/>
    <rect style="fill: none; fill-opacity:0; stroke-width: 2; stroke: #000000" x="553.904" y="188" width="14" height="20"/>
  </g>
  <g>
    <rect style="fill: #ffd294" x="180" y="60" width="121.544" height="36"/>
    <rect style="fill: none; fill-opacity:0; stroke-width: 2; stroke: #000000" x="180" y="60" width="121.544" height="36"/>
    <text font-size="12.7998" style="fill: #000000;text-anchor:middle;font-family:sans-serif;font-style:normal;font-weight:normal" x="240.772" y="81.9">
      <tspan x="240.772" y="81.9">ProtocolParser.c</tspan>
    </text>
    <line style="fill: none; fill-opacity:0; stroke-width: 1; stroke: #000000" x1="190" y1="84.95" x2="291.544" y2="84.95"/>
  </g>
  <g>
    <line style="fill: none; fill-opacity:0; stroke-width: 1; stroke-dasharray: 8; stroke: #000000" x1="240" y1="100" x2="240" y2="216"/>
    <line style="fill: none; fill-opacity:0; stroke-width: 1; stroke-dasharray: 8; stroke: #000000" x1="240" y1="236" x2="240" y2="360"/>
    <rect style="fill: #ffd294" x="233" y="216" width="14" height="20"/>
    <rect style="fill: none; fill-opacity:0; stroke-width: 2; stroke: #000000" x="233" y="216" width="14" height="20"/>
  </g>
  <g>
    <line style="fill: none; fill-opacity:0; stroke-width: 2; stroke: #000000" x1="535" y1="189.578" x2="96" y2="189.578"/>
    <polygon style="fill: #000000" points="535,194.578 551,189.578 535,184.578 "/>
    <polygon style="fill: none; fill-opacity:0; stroke-width: 2; stroke: #000000" points="535,194.578 551,189.578 535,184.578 "/>
    <text font-size="12.7998" style="fill: #000000;text-anchor:middle;font-family:sans-serif;font-style:normal;font-weight:normal" x="324" y="199.578">startVisualizer()</text>
  </g>
  <g>
    <line style="fill: none; fill-opacity:0; stroke-width: 2; stroke: #000000" x1="675" y1="193.452" x2="568" y2="193.452"/>
    <polygon style="fill: #000000" points="675,198.452 691,193.452 675,188.452 "/>
    <polygon style="fill: none; fill-opacity:0; stroke-width: 2; stroke: #000000" points="675,198.452 691,193.452 675,188.452 "/>
    <text font-size="12.7998" style="fill: #000000;text-anchor:middle;font-family:sans-serif;font-style:normal;font-weight:normal" x="630" y="203.452">BSP_OpenLeds()</text>
  </g>
  <g>
    <line style="fill: none; fill-opacity:0; stroke-width: 2; stroke: #000000" x1="216" y1="216.101" x2="96" y2="216.812"/>
    <polygon style="fill: #000000" points="216.03,221.101 232,216.006 215.971,211.101 "/>
    <polygon style="fill: none; fill-opacity:0; stroke-width: 2; stroke: #000000" points="216.03,221.101 232,216.006 215.971,211.101 "/>
    <text font-size="12.7998" style="fill: #000000;text-anchor:middle;font-family:sans-serif;font-style:normal;font-weight:normal" x="164.5" y="226.406">init_lists()</text>
  </g>
  <g>
    <line style="fill: none; fill-opacity:0; stroke-width: 2; stroke: #000000" x1="675" y1="252.432" x2="96" y2="252.432"/>
    <polygon style="fill: #000000" points="675,257.432 691,252.432 675,247.432 "/>
    <polygon style="fill: none; fill-opacity:0; stroke-width: 2; stroke: #000000" points="675,257.432 691,252.432 675,247.432 "/>
    <text font-size="12.7998" style="fill: #000000;text-anchor:middle;font-family:sans-serif;font-style:normal;font-weight:normal" x="394" y="262.432"/>
  </g>
  <g>
    <line style="fill: none; fill-opacity:0; stroke-width: 2; stroke: #000000" x1="675" y1="280" x2="96" y2="280"/>
    <polygon style="fill: #000000" points="675,285 691,280 675,275 "/>
    <polygon style="fill: none; fill-opacity:0; stroke-width: 2; stroke: #000000" points="675,285 691,280 675,275 "/>
    <text font-size="12.7998" style="fill: #000000;text-anchor:middle;font-family:sans-serif;font-style:normal;font-weight:normal" x="394" y="290"/>
  </g>
  <g>
    <line style="fill: none; fill-opacity:0; stroke-width: 2; stroke-dasharray: 8; stroke: #000000" x1="113" y1="331.943" x2="693" y2="330"/>
    <polygon style="fill: #000000" points="112.983,326.943 97,331.997 113.017,336.943 "/>
    <polygon style="fill: none; fill-opacity:0; stroke-width: 2; stroke: #000000" points="112.983,326.943 97,331.997 113.017,336.943 "/>
    <text font-size="12.7998" style="fill: #000000;text-anchor:middle;font-family:sans-serif;font-style:normal;font-weight:normal" x="394.5" y="341">ZDO_StartNetworkConf(</text>
  </g>
  <g>
    <polyline style="fill: none; fill-opacity:0; stroke-width: 2; stroke: #000000" points="96,348 128,348 128,372 105.736,372 "/>
    <polygon style="fill: #000000" points="98.2361,372 108.236,367 105.736,372 108.236,377 "/>
    <polygon style="fill: none; fill-opacity:0; stroke-width: 2; stroke: #000000" points="98.2361,372 108.236,367 105.736,372 108.236,377 "/>
  </g>
  <text font-size="12.7998" style="fill: #000000;text-anchor:start;font-family:sans-serif;font-style:normal;font-weight:normal" x="132" y="364">
    <tspan x="132" y="364">ChangeGlobalTask()</tspan>
  </text>
</svg>
