<?xml version="1.0" encoding="UTF-8" standalone="no"?>
<!-- Created with Inkscape (http://www.inkscape.org/) -->

<svg
   xmlns:dc="http://purl.org/dc/elements/1.1/"
   xmlns:cc="http://creativecommons.org/ns#"
   xmlns:rdf="http://www.w3.org/1999/02/22-rdf-syntax-ns#"
   xmlns:svg="http://www.w3.org/2000/svg"
   xmlns="http://www.w3.org/2000/svg"
   xmlns:sodipodi="http://sodipodi.sourceforge.net/DTD/sodipodi-0.dtd"
   xmlns:inkscape="http://www.inkscape.org/namespaces/inkscape"
   width="547.13727"
   height="224.87733"
   id="svg2"
   version="1.1"
   inkscape:version="0.48.3.1 r9886"
   sodipodi:docname="topologias_ieee80215.svg">
  <defs
     id="defs4">
    <filter
       inkscape:collect="always"
       id="filter3913"
       color-interpolation-filters="sRGB">
      <feGaussianBlur
         inkscape:collect="always"
         stdDeviation="1.8882459"
         id="feGaussianBlur3915" />
    </filter>
    <filter
       inkscape:collect="always"
       id="filter3917"
       color-interpolation-filters="sRGB">
      <feGaussianBlur
         inkscape:collect="always"
         stdDeviation="1.8882459"
         id="feGaussianBlur3919" />
    </filter>
    <filter
       inkscape:collect="always"
       id="filter3921"
       color-interpolation-filters="sRGB">
      <feGaussianBlur
         inkscape:collect="always"
         stdDeviation="1.8882459"
         id="feGaussianBlur3923" />
    </filter>
    <filter
       inkscape:collect="always"
       id="filter3925"
       color-interpolation-filters="sRGB">
      <feGaussianBlur
         inkscape:collect="always"
         stdDeviation="1.8882459"
         id="feGaussianBlur3927" />
    </filter>
    <filter
       inkscape:collect="always"
       id="filter3929"
       color-interpolation-filters="sRGB">
      <feGaussianBlur
         inkscape:collect="always"
         stdDeviation="1.8882459"
         id="feGaussianBlur3931" />
    </filter>
    <filter
       inkscape:collect="always"
       id="filter3933"
       color-interpolation-filters="sRGB">
      <feGaussianBlur
         inkscape:collect="always"
         stdDeviation="1.8882459"
         id="feGaussianBlur3935" />
    </filter>
    <filter
       inkscape:collect="always"
       id="filter3949"
       color-interpolation-filters="sRGB">
      <feGaussianBlur
         inkscape:collect="always"
         stdDeviation="2.0730926"
         id="feGaussianBlur3951" />
    </filter>
    <filter
       inkscape:collect="always"
       id="filter3953"
       color-interpolation-filters="sRGB">
      <feGaussianBlur
         inkscape:collect="always"
         stdDeviation="2.0730926"
         id="feGaussianBlur3955" />
    </filter>
    <filter
       inkscape:collect="always"
       id="filter3957"
       color-interpolation-filters="sRGB">
      <feGaussianBlur
         inkscape:collect="always"
         stdDeviation="2.0730926"
         id="feGaussianBlur3959" />
    </filter>
    <filter
       inkscape:collect="always"
       id="filter3961"
       color-interpolation-filters="sRGB">
      <feGaussianBlur
         inkscape:collect="always"
         stdDeviation="2.0730926"
         id="feGaussianBlur3963" />
    </filter>
    <filter
       inkscape:collect="always"
       id="filter3965"
       color-interpolation-filters="sRGB">
      <feGaussianBlur
         inkscape:collect="always"
         stdDeviation="2.0730926"
         id="feGaussianBlur3967" />
    </filter>
    <filter
       inkscape:collect="always"
       id="filter3969"
       color-interpolation-filters="sRGB">
      <feGaussianBlur
         inkscape:collect="always"
         stdDeviation="2.0730926"
         id="feGaussianBlur3971" />
    </filter>
  </defs>
  <sodipodi:namedview
     id="base"
     pagecolor="#ffffff"
     bordercolor="#666666"
     borderopacity="1.0"
     inkscape:pageopacity="0.0"
     inkscape:pageshadow="2"
     inkscape:zoom="0.98994949"
     inkscape:cx="204.34551"
     inkscape:cy="83.543338"
     inkscape:document-units="px"
     inkscape:current-layer="layer1"
     showgrid="false"
     inkscape:window-width="1366"
     inkscape:window-height="744"
     inkscape:window-x="0"
     inkscape:window-y="24"
     inkscape:window-maximized="1"
     fit-margin-top="0"
     fit-margin-left="0"
     fit-margin-right="0"
     fit-margin-bottom="0" />
  <metadata
     id="metadata7">
    <rdf:RDF>
      <cc:Work
         rdf:about="">
        <dc:format>image/svg+xml</dc:format>
        <dc:type
           rdf:resource="http://purl.org/dc/dcmitype/StillImage" />
        <dc:title />
      </cc:Work>
    </rdf:RDF>
  </metadata>
  <g
     inkscape:label="Capa 1"
     inkscape:groupmode="layer"
     id="layer1"
     transform="translate(-92.934036,-38.286572)">
    <g
       id="g3995"
       transform="matrix(0.75336489,0,0,0.75336489,69.722361,10.99259)">
      <path
         sodipodi:type="arc"
         style="fill:#b0b0af;fill-opacity:1;stroke:none;filter:url(#filter3913)"
         id="path3805"
         sodipodi:cx="163.92857"
         sodipodi:cy="136.29076"
         sodipodi:rx="31.071428"
         sodipodi:ry="31.071428"
         d="m 195,136.29076 c 0,17.16027 -13.91115,31.07142 -31.07143,31.07142 -17.16027,0 -31.07142,-13.91115 -31.07142,-31.07142 0,-17.16028 13.91115,-31.07143 31.07142,-31.07143 17.16028,0 31.07143,13.91115 31.07143,31.07143 z"
         transform="matrix(0.61605061,0,0,0.61605061,210.50155,123.04375)" />
      <path
         transform="matrix(0.61605061,0,0,0.61605061,127.92158,50.060234)"
         d="m 195,136.29076 c 0,17.16027 -13.91115,31.07142 -31.07143,31.07142 -17.16027,0 -31.07142,-13.91115 -31.07142,-31.07142 0,-17.16028 13.91115,-31.07143 31.07142,-31.07143 17.16028,0 31.07143,13.91115 31.07143,31.07143 z"
         sodipodi:ry="31.071428"
         sodipodi:rx="31.071428"
         sodipodi:cy="136.29076"
         sodipodi:cx="163.92857"
         id="path3807"
         style="fill:#b0b0af;fill-opacity:1;stroke:none;filter:url(#filter3917)"
         sodipodi:type="arc" />
      <path
         sodipodi:type="arc"
         style="fill:#b0b0af;fill-opacity:1;stroke:none;filter:url(#filter3921)"
         id="path3809"
         sodipodi:cx="163.92857"
         sodipodi:cy="136.29076"
         sodipodi:rx="31.071428"
         sodipodi:ry="31.071428"
         d="m 195,136.29076 c 0,17.16027 -13.91115,31.07142 -31.07143,31.07142 -17.16027,0 -31.07142,-13.91115 -31.07142,-31.07142 0,-17.16028 13.91115,-31.07143 31.07142,-31.07143 17.16028,0 31.07143,13.91115 31.07143,31.07143 z"
         transform="matrix(0.61605061,0,0,0.61605061,232.28111,7.1160599)" />
      <path
         transform="matrix(0.61605061,0,0,0.61605061,303.94066,80.617348)"
         d="m 195,136.29076 c 0,17.16027 -13.91115,31.07142 -31.07143,31.07142 -17.16027,0 -31.07142,-13.91115 -31.07142,-31.07142 0,-17.16028 13.91115,-31.07143 31.07142,-31.07143 17.16028,0 31.07143,13.91115 31.07143,31.07143 z"
         sodipodi:ry="31.071428"
         sodipodi:rx="31.071428"
         sodipodi:cy="136.29076"
         sodipodi:cx="163.92857"
         id="path3811"
         style="fill:#b0b0af;fill-opacity:1;stroke:none;filter:url(#filter3925)"
         sodipodi:type="arc" />
      <path
         sodipodi:type="arc"
         style="fill:#b0b0af;fill-opacity:1;stroke:none;filter:url(#filter3929)"
         id="path3813"
         sodipodi:cx="163.92857"
         sodipodi:cy="136.29076"
         sodipodi:rx="31.071428"
         sodipodi:ry="31.071428"
         d="m 195,136.29076 c 0,17.16027 -13.91115,31.07142 -31.07143,31.07142 -17.16027,0 -31.07142,-13.91115 -31.07142,-31.07142 0,-17.16028 13.91115,-31.07143 31.07142,-31.07143 17.16028,0 31.07143,13.91115 31.07143,31.07143 z"
         transform="matrix(0.61605061,0,0,0.61605061,125.96441,193.43876)" />
      <path
         transform="matrix(0.61605061,0,0,0.61605061,248.14768,217.87554)"
         d="m 195,136.29076 c 0,17.16027 -13.91115,31.07142 -31.07143,31.07142 -17.16027,0 -31.07142,-13.91115 -31.07142,-31.07142 0,-17.16028 13.91115,-31.07143 31.07142,-31.07143 17.16028,0 31.07143,13.91115 31.07143,31.07143 z"
         sodipodi:ry="31.071428"
         sodipodi:rx="31.071428"
         sodipodi:cy="136.29076"
         sodipodi:cx="163.92857"
         id="path3815"
         style="fill:#b0b0af;fill-opacity:1;stroke:none;filter:url(#filter3933)"
         sodipodi:type="arc" />
      <path
         transform="matrix(0.61605061,0,0,0.61605061,209.99647,121.04375)"
         d="m 195,136.29076 c 0,17.16027 -13.91115,31.07142 -31.07143,31.07142 -17.16027,0 -31.07142,-13.91115 -31.07142,-31.07142 0,-17.16028 13.91115,-31.07143 31.07142,-31.07143 17.16028,0 31.07143,13.91115 31.07143,31.07143 z"
         sodipodi:ry="31.071428"
         sodipodi:rx="31.071428"
         sodipodi:cy="136.29076"
         sodipodi:cx="163.92857"
         id="path2985"
         style="fill:#5273ff;fill-opacity:1;stroke:#000000;stroke-opacity:1"
         sodipodi:type="arc" />
      <path
         sodipodi:type="arc"
         style="fill:#9af672;fill-opacity:1;stroke:#000000;stroke-opacity:1"
         id="path3755"
         sodipodi:cx="163.92857"
         sodipodi:cy="136.29076"
         sodipodi:rx="31.071428"
         sodipodi:ry="31.071428"
         d="m 195,136.29076 c 0,17.16027 -13.91115,31.07142 -31.07143,31.07142 -17.16027,0 -31.07142,-13.91115 -31.07142,-31.07142 0,-17.16028 13.91115,-31.07143 31.07142,-31.07143 17.16028,0 31.07143,13.91115 31.07143,31.07143 z"
         transform="matrix(0.61605061,0,0,0.61605061,127.4165,48.060234)" />
      <path
         transform="matrix(0.61605061,0,0,0.61605061,231.77603,5.1160599)"
         d="m 195,136.29076 c 0,17.16027 -13.91115,31.07142 -31.07143,31.07142 -17.16027,0 -31.07142,-13.91115 -31.07142,-31.07142 0,-17.16028 13.91115,-31.07143 31.07142,-31.07143 17.16028,0 31.07143,13.91115 31.07143,31.07143 z"
         sodipodi:ry="31.071428"
         sodipodi:rx="31.071428"
         sodipodi:cy="136.29076"
         sodipodi:cx="163.92857"
         id="path3757"
         style="fill:#ff6e56;fill-opacity:1;stroke:#000000;stroke-opacity:1"
         sodipodi:type="arc" />
      <path
         sodipodi:type="arc"
         style="fill:#9af672;fill-opacity:1;stroke:#000000;stroke-opacity:1"
         id="path3759"
         sodipodi:cx="163.92857"
         sodipodi:cy="136.29076"
         sodipodi:rx="31.071428"
         sodipodi:ry="31.071428"
         d="m 195,136.29076 c 0,17.16027 -13.91115,31.07142 -31.07143,31.07142 -17.16027,0 -31.07142,-13.91115 -31.07142,-31.07142 0,-17.16028 13.91115,-31.07143 31.07142,-31.07143 17.16028,0 31.07143,13.91115 31.07143,31.07143 z"
         transform="matrix(0.61605061,0,0,0.61605061,303.43558,78.617348)" />
      <path
         transform="matrix(0.61605061,0,0,0.61605061,125.45933,191.43876)"
         d="m 195,136.29076 c 0,17.16027 -13.91115,31.07142 -31.07143,31.07142 -17.16027,0 -31.07142,-13.91115 -31.07142,-31.07142 0,-17.16028 13.91115,-31.07143 31.07142,-31.07143 17.16028,0 31.07143,13.91115 31.07143,31.07143 z"
         sodipodi:ry="31.071428"
         sodipodi:rx="31.071428"
         sodipodi:cy="136.29076"
         sodipodi:cx="163.92857"
         id="path3761"
         style="fill:#ff6e56;fill-opacity:1;stroke:#000000;stroke-opacity:1"
         sodipodi:type="arc" />
      <path
         sodipodi:type="arc"
         style="fill:#ff6e56;fill-opacity:1;stroke:#000000;stroke-opacity:1"
         id="path3763"
         sodipodi:cx="163.92857"
         sodipodi:cy="136.29076"
         sodipodi:rx="31.071428"
         sodipodi:ry="31.071428"
         d="m 195,136.29076 c 0,17.16027 -13.91115,31.07142 -31.07143,31.07142 -17.16027,0 -31.07142,-13.91115 -31.07142,-31.07142 0,-17.16028 13.91115,-31.07143 31.07142,-31.07143 17.16028,0 31.07143,13.91115 31.07143,31.07143 z"
         transform="matrix(0.61605061,0,0,0.61605061,247.6426,215.87554)" />
      <path
         inkscape:connector-curvature="0"
         id="path3765"
         d="m 314.81045,186.21765 15.15229,-78.28682"
         style="fill:none;stroke:#000000;stroke-width:1px;stroke-linecap:butt;stroke-linejoin:miter;stroke-opacity:1" />
      <path
         inkscape:connector-curvature="0"
         id="path3767"
         d="m 329.81481,197.77313 57.07362,-25.75889"
         style="fill:none;stroke:#000000;stroke-width:1px;stroke-linecap:butt;stroke-linejoin:miter;stroke-opacity:1" />
      <path
         inkscape:connector-curvature="0"
         id="path3769"
         d="m 317.1879,223.02694 24.24366,59.09393"
         style="fill:none;stroke:#000000;stroke-width:1px;stroke-linecap:butt;stroke-linejoin:miter;stroke-opacity:1" />
      <path
         inkscape:connector-curvature="0"
         id="path3771"
         d="m 295.9747,217.0923 -54.54824,45.96194"
         style="fill:none;stroke:#000000;stroke-width:1px;stroke-linecap:butt;stroke-linejoin:miter;stroke-opacity:1" />
      <path
         inkscape:connector-curvature="0"
         id="path3773"
         d="M 295.21708,193.47998 242.68915,144.99266"
         style="fill:none;stroke:#000000;stroke-width:1px;stroke-linecap:butt;stroke-linejoin:miter;stroke-opacity:1" />
    </g>
    <g
       id="g3973"
       transform="matrix(0.75336489,0,0,0.75336489,325.85572,-293.00412)">
      <path
         transform="matrix(0.61605061,0,0,0.61605061,178.42504,503.11009)"
         d="m 195,136.29076 c 0,17.16027 -13.91115,31.07142 -31.07143,31.07142 -17.16027,0 -31.07142,-13.91115 -31.07142,-31.07142 0,-17.16028 13.91115,-31.07143 31.07142,-31.07143 17.16028,0 31.07143,13.91115 31.07143,31.07143 z"
         sodipodi:ry="31.071428"
         sodipodi:rx="31.071428"
         sodipodi:cy="136.29076"
         sodipodi:cx="163.92857"
         id="path3937"
         style="fill:#b0b0af;fill-opacity:1;stroke:none;filter:url(#filter3949)"
         sodipodi:type="arc" />
      <path
         transform="matrix(0.61605061,0,0,0.61605061,81.030758,417.79081)"
         d="m 195,136.29076 c 0,17.16027 -13.91115,31.07142 -31.07143,31.07142 -17.16027,0 -31.07142,-13.91115 -31.07142,-31.07142 0,-17.16028 13.91115,-31.07143 31.07142,-31.07143 17.16028,0 31.07143,13.91115 31.07143,31.07143 z"
         sodipodi:ry="31.071428"
         sodipodi:rx="31.071428"
         sodipodi:cy="136.29076"
         sodipodi:cx="163.92857"
         id="path3939"
         style="fill:#b0b0af;fill-opacity:1;stroke:none;filter:url(#filter3953)"
         sodipodi:type="arc" />
      <path
         sodipodi:type="arc"
         style="fill:#b0b0af;fill-opacity:1;stroke:none;filter:url(#filter3957)"
         id="path3941"
         sodipodi:cx="163.92857"
         sodipodi:cy="136.29076"
         sodipodi:rx="31.071428"
         sodipodi:ry="31.071428"
         d="m 195,136.29076 c 0,17.16027 -13.91115,31.07142 -31.07143,31.07142 -17.16027,0 -31.07142,-13.91115 -31.07142,-31.07142 0,-17.16028 13.91115,-31.07143 31.07142,-31.07143 17.16028,0 31.07143,13.91115 31.07143,31.07143 z"
         transform="matrix(0.61605061,0,0,0.61605061,211.03075,410.64795)" />
      <path
         transform="matrix(0.61605061,0,0,0.61605061,293.88789,474.93366)"
         d="m 195,136.29076 c 0,17.16027 -13.91115,31.07142 -31.07143,31.07142 -17.16027,0 -31.07142,-13.91115 -31.07142,-31.07142 0,-17.16028 13.91115,-31.07143 31.07142,-31.07143 17.16028,0 31.07143,13.91115 31.07143,31.07143 z"
         sodipodi:ry="31.071428"
         sodipodi:rx="31.071428"
         sodipodi:cy="136.29076"
         sodipodi:cx="163.92857"
         id="path3943"
         style="fill:#b0b0af;fill-opacity:1;stroke:none;filter:url(#filter3961)"
         sodipodi:type="arc" />
      <path
         sodipodi:type="arc"
         style="fill:#b0b0af;fill-opacity:1;stroke:none;filter:url(#filter3965)"
         id="path3945"
         sodipodi:cx="163.92857"
         sodipodi:cy="136.29076"
         sodipodi:rx="31.071428"
         sodipodi:ry="31.071428"
         d="m 195,136.29076 c 0,17.16027 -13.91115,31.07142 -31.07143,31.07142 -17.16027,0 -31.07142,-13.91115 -31.07142,-31.07142 0,-17.16028 13.91115,-31.07143 31.07142,-31.07143 17.16028,0 31.07143,13.91115 31.07143,31.07143 z"
         transform="matrix(0.61605061,0,0,0.61605061,241.03075,632.07652)" />
      <path
         sodipodi:type="arc"
         style="fill:#b0b0af;fill-opacity:1;stroke:none;filter:url(#filter3969)"
         id="path3947"
         sodipodi:cx="163.92857"
         sodipodi:cy="136.29076"
         sodipodi:rx="31.071428"
         sodipodi:ry="31.071428"
         d="m 195,136.29076 c 0,17.16027 -13.91115,31.07142 -31.07143,31.07142 -17.16027,0 -31.07142,-13.91115 -31.07142,-31.07142 0,-17.16028 13.91115,-31.07143 31.07142,-31.07143 17.16028,0 31.07143,13.91115 31.07143,31.07143 z"
         transform="matrix(0.61605061,0,0,0.61605061,86.559357,601.55515)" />
      <path
         sodipodi:type="arc"
         style="fill:#5273ff;fill-opacity:1;stroke:#000000;stroke-opacity:1"
         id="path3775"
         sodipodi:cx="163.92857"
         sodipodi:cy="136.29076"
         sodipodi:rx="31.071428"
         sodipodi:ry="31.071428"
         d="m 195,136.29076 c 0,17.16027 -13.91115,31.07142 -31.07143,31.07142 -17.16027,0 -31.07142,-13.91115 -31.07142,-31.07142 0,-17.16028 13.91115,-31.07143 31.07142,-31.07143 17.16028,0 31.07143,13.91115 31.07143,31.07143 z"
         transform="matrix(0.61605061,0,0,0.61605061,177.13933,501.04375)" />
      <path
         sodipodi:type="arc"
         style="fill:#ff6e56;fill-opacity:1;stroke:#000000;stroke-opacity:1"
         id="path3777"
         sodipodi:cx="163.92857"
         sodipodi:cy="136.29076"
         sodipodi:rx="31.071428"
         sodipodi:ry="31.071428"
         d="m 195,136.29076 c 0,17.16027 -13.91115,31.07142 -31.07143,31.07142 -17.16027,0 -31.07142,-13.91115 -31.07142,-31.07142 0,-17.16028 13.91115,-31.07143 31.07142,-31.07143 17.16028,0 31.07143,13.91115 31.07143,31.07143 z"
         transform="matrix(0.61605061,0,0,0.61605061,79.745044,415.72447)" />
      <path
         transform="matrix(0.61605061,0,0,0.61605061,209.74504,408.58161)"
         d="m 195,136.29076 c 0,17.16027 -13.91115,31.07142 -31.07143,31.07142 -17.16027,0 -31.07142,-13.91115 -31.07142,-31.07142 0,-17.16028 13.91115,-31.07143 31.07142,-31.07143 17.16028,0 31.07143,13.91115 31.07143,31.07143 z"
         sodipodi:ry="31.071428"
         sodipodi:rx="31.071428"
         sodipodi:cy="136.29076"
         sodipodi:cx="163.92857"
         id="path3779"
         style="fill:#ff6e56;fill-opacity:1;stroke:#000000;stroke-opacity:1"
         sodipodi:type="arc" />
      <path
         sodipodi:type="arc"
         style="fill:#ff6e56;fill-opacity:1;stroke:#000000;stroke-opacity:1"
         id="path3781"
         sodipodi:cx="163.92857"
         sodipodi:cy="136.29076"
         sodipodi:rx="31.071428"
         sodipodi:ry="31.071428"
         d="m 195,136.29076 c 0,17.16027 -13.91115,31.07142 -31.07143,31.07142 -17.16027,0 -31.07142,-13.91115 -31.07142,-31.07142 0,-17.16028 13.91115,-31.07143 31.07142,-31.07143 17.16028,0 31.07143,13.91115 31.07143,31.07143 z"
         transform="matrix(0.61605061,0,0,0.61605061,292.60218,472.86732)" />
      <path
         transform="matrix(0.61605061,0,0,0.61605061,239.74504,630.01018)"
         d="m 195,136.29076 c 0,17.16027 -13.91115,31.07142 -31.07143,31.07142 -17.16027,0 -31.07142,-13.91115 -31.07142,-31.07142 0,-17.16028 13.91115,-31.07143 31.07142,-31.07143 17.16028,0 31.07143,13.91115 31.07143,31.07143 z"
         sodipodi:ry="31.071428"
         sodipodi:rx="31.071428"
         sodipodi:cy="136.29076"
         sodipodi:cx="163.92857"
         id="path3783"
         style="fill:#ff6e56;fill-opacity:1;stroke:#000000;stroke-opacity:1"
         sodipodi:type="arc" />
      <path
         transform="matrix(0.61605061,0,0,0.61605061,85.273643,599.48881)"
         d="m 195,136.29076 c 0,17.16027 -13.91115,31.07142 -31.07143,31.07142 -17.16027,0 -31.07142,-13.91115 -31.07142,-31.07142 0,-17.16028 13.91115,-31.07143 31.07142,-31.07143 17.16028,0 31.07143,13.91115 31.07143,31.07143 z"
         sodipodi:ry="31.071428"
         sodipodi:rx="31.071428"
         sodipodi:cy="136.29076"
         sodipodi:cx="163.92857"
         id="path3785"
         style="fill:#9af672;fill-opacity:1;stroke:#000000;stroke-opacity:1"
         sodipodi:type="arc" />
      <path
         inkscape:connector-curvature="0"
         id="path3787"
         d="m 198.92857,669.50504 65.35714,-70.71429"
         style="fill:none;stroke:#000000;stroke-width:1px;stroke-linecap:butt;stroke-linejoin:miter;stroke-opacity:1" />
      <path
         sodipodi:nodetypes="cc"
         inkscape:connector-curvature="0"
         id="path3789"
         d="m 287.8125,601.60325 45.9375,94.375"
         style="fill:none;stroke:#000000;stroke-width:1px;stroke-linecap:butt;stroke-linejoin:miter;stroke-opacity:1" />
      <path
         sodipodi:nodetypes="cc"
         inkscape:connector-curvature="0"
         id="path3791"
         d="M 348.92857,696.6479 388.66072,575.44254"
         style="fill:none;stroke:#000000;stroke-width:1px;stroke-linecap:butt;stroke-linejoin:miter;stroke-opacity:1" />
      <path
         sodipodi:nodetypes="cc"
         inkscape:connector-curvature="0"
         id="path3793"
         d="m 295.98214,577.89789 78.75,-17.49999"
         style="fill:none;stroke:#000000;stroke-width:1px;stroke-linecap:butt;stroke-linejoin:miter;stroke-opacity:1" />
      <path
         sodipodi:nodetypes="cccc"
         inkscape:connector-curvature="0"
         id="path3795"
         d="m 378.75,544.46039 -51.25,-41.02678 0,0 -0.58802,-0.46562"
         style="fill:none;stroke:#000000;stroke-width:1px;stroke-linecap:butt;stroke-linejoin:miter;stroke-opacity:1" />
      <path
         sodipodi:nodetypes="cc"
         inkscape:connector-curvature="0"
         id="path3797"
         d="m 285.22322,567.22825 19.06249,-56.29464"
         style="fill:none;stroke:#000000;stroke-width:1px;stroke-linecap:butt;stroke-linejoin:miter;stroke-opacity:1" />
      <path
         sodipodi:nodetypes="cc"
         inkscape:connector-curvature="0"
         id="path3799"
         d="m 199.71589,496.71103 91.77767,-3.63456"
         style="fill:none;stroke:#000000;stroke-width:1px;stroke-linecap:butt;stroke-linejoin:miter;stroke-opacity:1" />
      <path
         inkscape:connector-curvature="0"
         id="path3803"
         d="m 193.92857,513.79075 69.46429,59.28572"
         style="fill:none;stroke:#000000;stroke-width:1px;stroke-linecap:butt;stroke-linejoin:miter;stroke-opacity:1" />
    </g>
    <text
       xml:space="preserve"
       style="font-size:18.57987213px;font-style:normal;font-weight:normal;line-height:125%;letter-spacing:0px;word-spacing:0px;fill:#000000;fill-opacity:1;stroke:none;font-family:Sans"
       x="275.24991"
       y="51.178173"
       id="text4014"
       sodipodi:linespacing="125%"><tspan
         sodipodi:role="line"
         id="tspan4016"
         x="275.24991"
         y="51.178173"
         style="font-style:normal;font-variant:normal;font-weight:normal;font-stretch:normal;font-family:Liberation Serif;-inkscape-font-specification:Liberation Serif">Estrella</tspan></text>
    <rect
       style="fill:#5273ff;fill-opacity:1;stroke:none"
       id="rect4022"
       width="28.157499"
       height="14.839763"
       x="92.934036"
       y="107.29314"
       rx="4.3476214"
       ry="6.0221109" />
    <rect
       ry="6.0221109"
       rx="4.3476214"
       y="130.45958"
       x="92.934036"
       height="14.839763"
       width="28.157499"
       id="rect4024"
       style="fill:#ff6e56;fill-opacity:1;stroke:none" />
    <rect
       style="fill:#9af672;fill-opacity:1;stroke:none"
       id="rect4026"
       width="28.157499"
       height="14.839763"
       x="92.934036"
       y="153.62599"
       rx="4.3476214"
       ry="6.0221109" />
    <text
       sodipodi:linespacing="125%"
       id="text4028"
       y="120.18513"
       x="127.22917"
       style="font-size:22.21231079px;font-style:normal;font-weight:normal;line-height:125%;letter-spacing:0px;word-spacing:0px;fill:#000000;fill-opacity:1;stroke:none;font-family:Sans"
       xml:space="preserve"><tspan
         style="font-size:15.99840164px;font-style:normal;font-variant:normal;font-weight:normal;font-stretch:normal;font-family:Liberation Serif;-inkscape-font-specification:Liberation Serif"
         y="120.18513"
         x="127.22917"
         id="tspan4030"
         sodipodi:role="line">Coordinador</tspan></text>
    <text
       xml:space="preserve"
       style="font-size:22.21231079px;font-style:normal;font-weight:normal;line-height:125%;letter-spacing:0px;word-spacing:0px;fill:#000000;fill-opacity:1;stroke:none;font-family:Sans"
       x="127.42446"
       y="143.10159"
       id="text4032"
       sodipodi:linespacing="125%"><tspan
         sodipodi:role="line"
         id="tspan4034"
         x="127.42446"
         y="143.10159"
         style="font-size:15.99840164px;font-style:normal;font-variant:normal;font-weight:normal;font-stretch:normal;font-family:Liberation Serif;-inkscape-font-specification:Liberation Serif">FFD</tspan></text>
    <text
       sodipodi:linespacing="125%"
       id="text4036"
       y="166.26801"
       x="127.42446"
       style="font-size:22.21231079px;font-style:normal;font-weight:normal;line-height:125%;letter-spacing:0px;word-spacing:0px;fill:#000000;fill-opacity:1;stroke:none;font-family:Sans"
       xml:space="preserve"><tspan
         style="font-size:15.99840164px;font-style:normal;font-variant:normal;font-weight:normal;font-stretch:normal;font-family:Liberation Serif;-inkscape-font-specification:Liberation Serif"
         y="166.26801"
         x="127.42446"
         id="tspan4038"
         sodipodi:role="line">RFD</tspan></text>
    <text
       sodipodi:linespacing="125%"
       id="text4930"
       y="51.178173"
       x="475.24991"
       style="font-size:18.57987213px;font-style:normal;font-weight:normal;line-height:125%;letter-spacing:0px;word-spacing:0px;fill:#000000;fill-opacity:1;stroke:none;font-family:Sans"
       xml:space="preserve"><tspan
         style="font-style:normal;font-variant:normal;font-weight:normal;font-stretch:normal;font-family:Liberation Serif;-inkscape-font-specification:Liberation Serif"
         y="51.178173"
         x="475.24991"
         id="tspan4932"
         sodipodi:role="line">Punto a punto</tspan></text>
  </g>
</svg>
